<svg xmlns="http://www.w3.org/2000/svg" version="1.1" xmlns:xlink="http://www.w3.org/1999/xlink" xmlns:svgjs="http://svgjs.com/svgjs" width="1440" height="560" preserveAspectRatio="none" viewBox="0 0 1440 560"><g mask="url(&quot;#SvgjsMask1000&quot;)" fill="none"><rect width="1440" height="560" x="0" y="0" fill="#1e3266"></rect><path d="M1512 560L0 560 L0 350.24Q39.64 317.88, 72 357.53Q111.67 277.19, 192 316.86Q264.58 269.44, 312 342.03Q323.15 281.18, 384 292.33Q458.96 247.29, 504 322.25Q585.63 283.88, 624 365.52Q645.04 266.56, 744 287.6Q814.6 238.2, 864 308.79Q939.82 264.61, 984 340.43Q1030.79 315.22, 1056 362Q1066.87 300.87, 1128 311.73Q1172.69 236.42, 1248 281.11Q1316.18 229.3, 1368 297.48Q1431.26 288.74, 1440 352Q1469.97 309.97, 1512 339.94z" fill="#182f5d"></path><path d="M1488 560L0 560 L0 355.16Q81.94 365.1, 72 447.04Q126.22 381.26, 192 435.49Q244.5 368, 312 420.5Q319.21 355.71, 384 362.91Q427.15 334.06, 456 377.21Q530.28 331.49, 576 405.76Q626.92 336.68, 696 387.6Q719.63 339.24, 768 362.87Q852.23 327.1, 888 411.32Q960.82 364.13, 1008 436.95Q1062.07 371.01, 1128 425.08Q1151.99 329.07, 1248 353.07Q1320.58 305.65, 1368 378.23Q1439.22 329.45, 1488 400.67z" fill="#25467d"></path><path d="M1536 560L0 560 L0 429.66Q78.8 388.46, 120 467.25Q147.22 422.47, 192 449.69Q251.83 437.52, 264 497.36Q287.13 448.49, 336 471.61Q379.25 442.86, 408 486.1Q412.99 419.09, 480 424.07Q518.65 390.72, 552 429.37Q646.7 404.07, 672 498.78Q725.41 432.19, 792 485.6Q830.29 403.89, 912 442.18Q977.23 387.41, 1032 452.64Q1077.1 425.74, 1104 470.84Q1116.93 411.77, 1176 424.71Q1250.89 379.61, 1296 454.5Q1387.11 425.61, 1416 516.71Q1467.96 448.67, 1536 500.63z" fill="#356cb1"></path><path d="M1560 560L0 560 L0 547.04Q67.6 494.63, 120 562.23Q166.59 536.82, 192 583.41Q203 522.41, 264 533.42Q308.99 458.4, 384 503.39Q481.03 480.42, 504 577.46Q551.33 504.79, 624 552.11Q701.85 509.96, 744 587.81Q744.6 516.4, 816 517Q842.79 471.79, 888 498.58Q946.11 484.69, 960 542.8Q1039.95 502.75, 1080 582.7Q1125.41 508.12, 1200 553.53Q1228.26 461.78, 1320 490.04Q1389.92 439.97, 1440 509.89Q1516.82 466.7, 1560 543.52z" fill="white"></path></g><defs><mask id="SvgjsMask1000"><rect width="1440" height="560" fill="#ffffff"></rect></mask></defs></svg>